<svg aria-hidden="true" style="position:absolute;width:0;height:0" xmlns="http://www.w3.org/2000/svg" overflow="hidden"><defs>
<symbol id="telegram" viewBox="0 0 44 32"><path fill="var(--color1, #fff)" d="M17.343 21.048l-.675 8.86c.966 0 1.384-.387 1.885-.852l4.527-4.038 9.381 6.412c1.72.895 2.933.424 3.397-1.477l6.157-26.929.002-.002c.546-2.374-.92-3.302-2.596-2.72L3.227 13.235c-2.47.895-2.433 2.18-.42 2.762l9.253 2.686L33.554 6.131c1.011-.625 1.931-.279 1.175.346l-17.386 14.57z"/></symbol>
<symbol id="facebook" viewBox="0 0 16 32"><path fill="var(--color1, #fff)" d="M14.143 15.972h-4.034v14.865H3.997V15.972H1.09v-5.224h2.907V7.367c0-2.418 1.142-6.203 6.166-6.203l4.527.019v5.071h-3.285c-.539 0-1.296.271-1.296 1.424v3.075h4.567l-.534 5.219z"/></symbol>
<symbol id="github" viewBox="0 0 32 32"><path fill="var(--color1, #fff)" d="M16 0C7.212 0 0 7.212 0 16c0 7.499 5.262 14.312 12.25 16v-5.293c-.692.152-1.33.156-2.034-.052-.946-.279-1.714-.909-2.284-1.869-.364-.613-1.008-1.278-1.68-1.23l-.165-1.868c1.453-.124 2.711.886 3.457 2.14.332.558.713.884 1.203 1.029.473.14.982.072 1.574-.137.149-1.186.692-1.63 1.102-2.255v-.001c-4.167-.622-5.828-2.832-6.488-4.578-.874-2.317-.405-5.212 1.14-7.041.03-.036.084-.129.063-.194-.708-2.139.155-3.909.187-4.097.817.242.95-.243 3.551 1.337l.449.27c.188.112.129.048.317.034A13.544 13.544 0 0116 7.723c1.136.015 2.273.178 3.404.484l.145.015c-.013-.002.04-.009.127-.062 3.248-1.968 3.132-1.324 4.003-1.608.032.188.883 1.987.182 4.099-.095.291 2.816 2.956 1.203 7.235-.659 1.746-2.32 3.957-6.487 4.578v.001c.534.814 1.176 1.247 1.173 2.927V32C26.738 30.312 32 23.499 32 16c0-8.788-7.212-16-16-16z"/></symbol>
<symbol id="arrow" viewBox="0 0 37 32"><path fill="none" stroke="var(--color2, #d41443)" stroke-width="7.382" d="M0 16h32m0 0L18.667 2.667M32 16L18.667 29.333"/></symbol>
<symbol id="apples" viewBox="0 0 32 32"><path fill="var(--color3, #ffb8ca)" d="M23.692 11.385l.909.161.192-1.084h-1.101v.923zm-3.384 19.077v.923h.774l.135-.762-.909-.161zm-14.77 0l-.906.175.145.748h.762v-.923zM1.846 11.385v-.923H.727L.94 11.56l.906-.175zm.298 1.538zm22.471 17.539l.046-.922-.049-.002-.049.003.051.922zm.308-7.385l-.683.621.603.663.681-.583-.601-.701zm2.555-4.948a.924.924 0 00-1.418-1.182l1.418 1.182zM6.154 7.077l-.054.921.027.002h.027v-.923zm.615 0V8h.696l.191-.669-.888-.254zm4.923-2.769zm5.231 2.769l-.537.751.588.42.549-.471-.601-.701zm-3.077-.923zm5.247-4.059a.923.923 0 00-.648-1.728l.648 1.729zM6.121 1.166A.923.923 0 104.34.681l1.781.486zm7.351 5.314zm7.887 15.515zM19.747 26.1zm.561 3.438H5.539v1.846h14.769v-1.846zm-13.863.748L3.05 12.748l-1.813.351 3.395 17.538 1.813-.351zM3.05 12.748l-.298-1.538-1.813.351.298 1.538 1.813-.351zm19.733-1.525l-.273 1.538 1.818.322.273-1.538-1.818-.322zm-21.561 1.74c.094 2.181 1.356 4.188 3.122 5.72 1.776 1.54 4.145 2.68 6.657 3.111 2.517.433 5.224.162 7.629-1.186 2.416-1.354 4.441-3.746 5.665-7.391l-1.75-.588c-1.101 3.278-2.858 5.271-4.818 6.368-1.97 1.104-4.233 1.352-6.413.977-2.186-.376-4.244-1.371-5.76-2.687-1.526-1.324-2.422-2.894-2.487-4.405l-1.844.079zm20.549 9.858a1.434 1.434 0 011.003-.13c.371.088.869.35 1.466 1.006l1.366-1.242c-.771-.848-1.577-1.365-2.407-1.561a3.28 3.28 0 00-2.252.274l.824 1.652zm3.753.957c.533-.457 1.29-.913 1.993-1.057.34-.069.627-.057.861.023.222.076.461.233.688.568l1.53-1.034c-.433-.641-.988-1.066-1.622-1.282-.621-.212-1.254-.2-1.825-.084-1.12.228-2.156.889-2.826 1.464l1.201 1.402zm3.908 1.995c-.181.958-.588 1.94-1.311 2.651-.697.686-1.767 1.199-3.46 1.115l-.092 1.844c2.158.108 3.746-.56 4.847-1.643 1.074-1.057 1.604-2.43 1.83-3.625l-1.814-.343zm-3.586-2.696c0-.448.132-1.372.425-2.381.295-1.014.713-1.973 1.207-2.567l-1.418-1.182c-.736.883-1.241 2.13-1.562 3.233-.322 1.11-.498 2.216-.498 2.896h1.846zm-24-10.769h.923v-1.846h-.923v1.846zm1.78-1.266c-.267-.668-.376-1.523-.119-2.111.114-.261.31-.497.668-.671.377-.183.98-.318 1.924-.262l.108-1.843c-1.148-.068-2.091.082-2.837.444a3.152 3.152 0 00-1.555 1.593c-.543 1.243-.252 2.665.096 3.535l1.714-.686zM6.154 8h.615V6.154h-.615V8zm1.503-.669c.182-.636.609-1.571 1.237-2.136.299-.269.613-.426.948-.466.331-.039.783.026 1.385.377l.93-1.595c-.875-.511-1.726-.71-2.53-.616-.8.094-1.456.467-1.967.926-.992.892-1.55 2.202-1.778 3.002l1.775.507zm-4.888 4.977h10.154v-1.846H2.769v1.846zm19.385 0h1.538v-1.846h-1.538v1.846zm.882-.652c.229-.744.453-1.92.377-3.078-.074-1.13-.459-2.503-1.725-3.226l-.916 1.603c.458.261.739.838.798 1.743.057.878-.118 1.825-.3 2.414l1.765.543zm-1.347-6.304c-1.171-.669-2.37-.54-3.3-.206-.919.33-1.663.884-2.066 1.23l1.201 1.402c.315-.27.863-.669 1.488-.894.613-.22 1.209-.244 1.761.071l.916-1.603zm-4.229.974c-.366-.261-.989-.689-1.662-.971-.61-.255-1.609-.538-2.464.031l1.024 1.536c.015-.01.194-.087.726.135.469.196.949.519 1.302.771l1.073-1.502zm-4.537 5.982h1.538v-1.846h-1.538v1.846zm1.539 0h7.692v-1.846h-7.692v1.846zm3.376-5.353c-.092-.69-.119-1.861.097-2.916.229-1.118.651-1.754 1.158-1.944L18.445.366c-1.462.548-2.066 2.066-2.319 3.302-.266 1.298-.232 2.682-.118 3.53l1.83-.244zm-10.916-.39c-.517-.776-1.448-3.024-.801-5.399L4.34.68c-.829 3.041.332 5.838 1.046 6.909l1.536-1.024zm6.412-1.179a2.843 2.843 0 00-.552.481l1.379 1.228c.059-.067.125-.124.197-.172l-1.024-1.536zm-2.107-.281a2.963 2.963 0 011.369 1.67l1.75-.588a4.812 4.812 0 00-2.189-2.676l-.93 1.595zm1.37 1.67c.241.717.253 1.538.126 2.319-.127.783-.383 1.451-.601 1.833l1.603.916c.34-.595.662-1.478.82-2.452.159-.976.166-2.119-.198-3.204l-1.75.588zm9.913 5.987l-1.556 8.769 1.818.322 1.556-8.769-1.818-.322zM19.745 28.35l-.346 1.95 1.818.322.346-1.95-1.818-.323zm4.819 1.19c-.889.049-2.283-.292-3.15-1.552l-1.521 1.047c1.327 1.928 3.428 2.423 4.773 2.348l-.102-1.843zm-3.15-1.552c-.337-.49-.618-1.147-.755-2.029l-1.824.283c.175 1.129.548 2.053 1.058 2.793l1.521-1.047zm7.652-4.676c.432.64.541 1.535.366 2.461l1.814.343c.231-1.224.142-2.664-.651-3.838l-1.53 1.034zm-8.119-2.143c-1.962.979-2.381 3.341-2.112 5.072l1.824-.283c-.22-1.416.224-2.694 1.112-3.137l-.824-1.652z"/></symbol>
<symbol id="heart" viewBox="0 0 32 32"><path fill="none" stroke="var(--color3, #ffb8ca)" stroke-width="1.882" d="M17.882 22.902v8.157h-3.765v-8.157m3.765 0h-3.765m3.765 0c2.596-1.598 7.354-5.493 9.74-9.726m-13.504 9.726c-2.51-1.882-7.737-5.374-9.986-9.726m0 0c-1.191-2.305-1.636-4.783-.681-7.216C6.212-1.067 12.967 2.404 16 5.019c2.719-2.928 9.035-6.839 12.549.941 1.026 2.272.436 4.799-.926 7.216m-23.491 0c.819-.105 2.519-1.067 2.77-2.824.314-2.196 3.451-1.882 3.451 1.255s3.451 4.392 3.765 0c.314-4.392 3.765-2.824 3.922 0 .158 2.819 2.666 4.078 3.293-.314.448-3.137 3.012-3.137 3.765-1.255s2.525 3.137 2.525 3.137"/></symbol>
<symbol id="home" viewBox="0 0 32 32"><path fill="var(--color4, #d31342)" d="M31.618 15.643c.553-.608.5-1.541-.119-2.082L17.863 1.63c-.619-.541-1.611-.53-2.217.026L1.964 14.198a1.446 1.446 0 00-.066 2.079l.343.357c.569.592 1.489.663 2.053.157l1.023-.916v13.406c0 .823.666 1.488 1.488 1.488h5.333c.822 0 1.488-.666 1.488-1.488v-9.379h6.803v9.379c-.012.822.576 1.488 1.398 1.488h5.652c.822 0 1.488-.666 1.488-1.488V16.064l.631.554c.349.307 1.078.061 1.631-.548l.388-.426z"/></symbol>
<symbol id="logo" viewBox="0 0 32 32"><path fill="var(--color5, #d41442)" d="M12.367 17.5c0 .03-.085.055-.254.075-.169.017-.34.025-.512.025-.169 0-.277-.007-.324-.021-.047-.017-.071-.043-.071-.079v-2.588c0-.061.08-.121.241-.179.161-.061.341-.092.541-.092.178 0 .294.037.349.112a.147.147 0 01.029.083v2.662zm2.294.071a2.26 2.26 0 01-.341.05 3.505 3.505 0 01-.591.009c-.058-.006-.136-.019-.233-.042s-.186-.053-.266-.092a1.363 1.363 0 01-.258-.171 1.05 1.05 0 01-.225-.266c-.141-.238-.212-.546-.212-.924 0-.252.039-.476.116-.67.08-.194.176-.344.287-.449.114-.105.243-.19.387-.254.233-.105.467-.158.703-.158.338 0 .581.028.728.083.067.025.126.064.179.116s.079.129.079.229-.025.226-.075.379c-.047.153-.116.229-.208.229-.028 0-.13-.022-.308-.067s-.298-.067-.362-.067c-.097 0-.18.054-.25.162-.067.108-.1.262-.1.462s.029.355.087.466c.061.111.14.166.237.166.069 0 .194-.028.374-.083.183-.058.29-.087.32-.087.086 0 .153.079.2.237.05.158.075.286.075.383s-.03.175-.092.233a.565.565 0 01-.254.125zm2.63.029h-1.764c-.136 0-.227-.01-.275-.029s-.071-.05-.071-.092v-2.633c0-.072.032-.123.096-.154.067-.03.184-.046.354-.046h1.672c.058 0 .087.097.087.291 0 .191-.012.338-.037.441-.025.1-.058.15-.1.15-.18 0-.484-.018-.911-.054v.279c.411-.017.678-.025.803-.025.075 0 .112.087.112.262s-.015.308-.046.399c-.028.089-.067.133-.116.133l-.753-.017v.266c.483-.036.815-.054.998-.054.058 0 .087.097.087.291s-.012.341-.037.441c-.025.1-.058.15-.1.15zm2.389-.029a2.26 2.26 0 01-.341.05 3.505 3.505 0 01-.591.009c-.058-.006-.136-.019-.233-.042s-.186-.053-.266-.092a1.363 1.363 0 01-.258-.171 1.05 1.05 0 01-.225-.266c-.141-.238-.212-.546-.212-.924 0-.252.039-.476.116-.67.08-.194.176-.344.287-.449.114-.105.243-.19.387-.254.233-.105.467-.158.703-.158.338 0 .581.028.728.083.067.025.126.064.179.116s.079.129.079.229-.025.226-.075.379c-.047.153-.116.229-.208.229-.028 0-.13-.022-.308-.067s-.298-.067-.362-.067c-.097 0-.18.054-.25.162-.067.108-.1.262-.1.462s.029.355.087.466c.061.111.14.166.237.166.069 0 .194-.028.374-.083.183-.058.29-.087.32-.087.086 0 .153.079.2.237.05.158.075.286.075.383s-.03.175-.092.233a.565.565 0 01-.254.125zm1.686-.092c0 .036-.085.065-.254.087s-.34.033-.512.033c-.169 0-.279-.01-.329-.029-.047-.019-.071-.05-.071-.092v-2.675c0-.072.09-.123.27-.154.183-.03.413-.046.691-.046s.456.001.537.004c.083 0 .18.004.291.012s.198.022.262.042c.067.019.139.044.216.075a.46.46 0 01.187.121c.044.047.087.104.129.171.075.119.112.29.112.512 0 .219-.037.405-.112.557a.805.805 0 01-.291.341c.319.502.478.821.478.957s-.273.204-.82.204c-.158 0-.268-.007-.329-.021s-.1-.044-.116-.092l-.27-.857-.071-.004v.853zm0-1.493h.108c.161 0 .241-.125.241-.374 0-.128-.022-.218-.067-.27-.042-.053-.09-.079-.146-.079h-.137v.724zm3.797 1.614h-1.764c-.136 0-.227-.01-.275-.029s-.071-.05-.071-.092v-2.633c0-.072.032-.123.096-.154.067-.03.184-.046.354-.046h1.672c.058 0 .087.097.087.291 0 .191-.012.338-.037.441-.025.1-.058.15-.1.15-.18 0-.484-.018-.911-.054v.279c.411-.017.678-.025.803-.025.075 0 .112.087.112.262s-.015.308-.046.399c-.028.089-.067.133-.116.133l-.753-.017v.266c.483-.036.815-.054.998-.054.058 0 .087.097.087.291s-.012.341-.037.441c-.025.1-.058.15-.1.15zm1.454-.212c-.005.08-.048.136-.129.166-.078.03-.219.046-.424.046s-.377-.018-.516-.054c-.136-.039-.204-.087-.204-.146 0-.067.124-.491.37-1.273.247-.785.388-1.237.424-1.356.014-.036.125-.065.333-.087.211-.025.436-.037.674-.037.241 0 .374.042.399.125.524 1.742.786 2.626.786 2.654s-.017.055-.05.083c-.078.061-.232.092-.462.092-.491 0-.742-.058-.753-.175l-.029-.27h-.399l-.021.233zm.332-1.024l-.062-.749h-.092l-.071.749h.225zm2.107 1.236h-.304c-.13 0-.219-.01-.266-.029s-.071-.05-.071-.092v-2.625c0-.064.084-.114.254-.15.172-.039.355-.058.549-.058s.333.025.416.075.132.103.146.158l.283 1.098h.037l.266-1.048c.019-.075.109-.14.27-.196.164-.058.342-.087.537-.087s.337.015.428.046c.094.03.141.069.141.116v2.671c0 .036-.079.065-.237.087s-.351.033-.578.033c-.228 0-.341-.04-.341-.121 0-.219.024-.609.071-1.169h-.037l-.216 1.086c-.008.042-.043.072-.104.092-.058.019-.147.029-.266.029s-.193-.008-.22-.025c-.025-.017-.042-.049-.05-.096l-.225-1.086h-.037c.05.571.075.961.075 1.169 0 .072-.173.112-.52.121zM8 16a4 4 0 11-8 0 4 4 0 018 0z"/><path fill="var(--color1, #fff)" d="M2.72 19.791c.156.053.316.096.48.129v-.56h1.76v.524c.164-.04.324-.091.48-.151v-.403c.241-.049.437-.151.59-.298a1.31 1.31 0 00.354-.668c.089-.389.058-.832.031-1.159a.847.847 0 00.372-.293.64.64 0 00.085-.535.78.78 0 00-.272-.404.693.693 0 00-.212-.112l-.001-.015c-.024-.436-.058-1.047-.354-1.565a1.853 1.853 0 00-.814-.779c-.333-.16-.716-.222-1.137-.222-.848 0-1.61.478-1.958.984-.393.572-.462 1.231-.449 1.682-.289.192-.425.461-.38.742a.716.716 0 00.385.519l-.002.067c-.009.329-.019.72.093 1.112.085.296.299.517.509.667.146.104.302.184.442.239v.499zm1.63-4.88c-.51.083-1.106-.014-1.703-.534a2.049 2.049 0 011.433-.617c.378 0 .683.056.929.174.194.094.362.231.505.428-.27.231-.685.471-1.164.549zm.077.474c.53-.086.989-.332 1.314-.589.12.337.142.702.162 1.044H2.151c.001-.313.051-.701.225-1.062.692.582 1.415.71 2.05.607zm1.962 1.258c-.029.043-.099.107-.262.157H4.961v.24c0 .074.003.16.005.241l.004.142c.002.125 0 .232-.014.319a.317.317 0 01-.054.15c-.008.009-.028.029-.101.029-.126 0-.185-.027-.214-.049-.028-.021-.054-.056-.075-.127a1.207 1.207 0 01-.033-.297c-.001-.076 0-.149.001-.227l.002-.18v-.24H1.95a.25.25 0 01-.181-.187c-.008-.053.002-.173.213-.293h4.204l.023-.005c.013-.003.049-.001.099.037a.302.302 0 01.103.151.163.163 0 01-.02.14zm-4.233.679l.001-.042h1.841a5.16 5.16 0 000 .176c.003.137.013.285.052.42a.7.7 0 00.25.381.819.819 0 00.501.144c.183 0 .341-.06.456-.186a.76.76 0 00.173-.395c.022-.133.023-.276.021-.406a5.129 5.129 0 00-.004-.133h.493c.026.318.047.671-.023.977a.83.83 0 01-.219.429c-.102.098-.256.176-.506.194H2.994a1.6 1.6 0 01-.436-.217c-.164-.117-.284-.257-.327-.409-.09-.315-.083-.612-.075-.932z"/></symbol>
<symbol id="udder" viewBox="0 0 32 32"><path fill="none" stroke="var(--color3, #ffb8ca)" stroke-width="1.882" d="M6.588 14.118l3.451 16.627h11.922l3.137-16.627m-18.51 0h18.51m-18.51 0c.732 3.033 3.137 8.471 9.412 8.471 6.282 0 7.843-5.647 9.098-8.471M15.686 1.255h8.157c.152.304-.216 1.128-.814 1.941-.389.528-.397 1.24.043 1.727.685.759 1.331 1.733.457 2.606-.627.627-1.569.941-2.51-.314-.559-.745-1.671-.605-2.416-.172-.816.475-.684 1.617-1.025 2.498-.388 1.002-1.069 1.922-1.578 1.752-.97.194-1.358-1.045-1.499-2.19-.076-.619-.215-1.261-.706-1.645-.732-.572-1.817-.927-2.5-.244-1.109 1.109-1.882.941-2.51.314-.873-.873-.228-1.848.457-2.606.439-.487.431-1.199.043-1.727-.598-.813-.966-1.637-.814-1.941h8.157"/></symbol></defs></svg>